<svg width="210" height="140" viewBox="0 0 210 140" fill="none" xmlns="http://www.w3.org/2000/svg">
<path d="M140.431 40.8259L163.246 79.4807L146.912 85.2414L140.431 40.8259Z" fill="#EAD300"/>
<path d="M23.9945 81.7063L59.7388 78.3975L58.6735 91.9378L23.9945 81.7063Z" fill="#EA0000"/>
<circle cx="102.25" cy="96.25" r="3.75" fill="#9F00EA"/>
<circle cx="109.75" cy="58.75" r="8.75" fill="#EAA900"/>
<rect x="66" y="130.358" width="25" height="12.5" transform="rotate(-45.5869 66 130.358)" fill="#EAA900"/>
<rect x="185.681" y="42.4999" width="7.5" height="12.5" transform="rotate(21.9912 185.681 42.4999)" fill="#EA0000"/>
<rect x="99.5117" y="31.2887" width="30" height="10" transform="rotate(-116.768 99.5117 31.2887)" fill="#EA0000"/>
<path d="M0.999975 63.8937C0.999975 63.8937 16.9857 55.9317 20.6121 60.1049C22.6043 62.3976 24.1089 65.1744 22.3246 67.4305C20.9492 69.1696 18.9634 69.3913 16.6367 68.9827C11.7095 68.1174 11.7842 61.2752 13.7621 57.0376C16.4929 51.1868 30.9889 54.6402 30.9889 54.6402" stroke="#05EA00" stroke-width="3"/>
<path d="M56.2053 112.5C56.2053 112.5 54.9883 105.271 58.4809 103.83C61.415 102.619 63.9588 107.972 66.3697 106.032C68.8118 104.066 62.7156 100.951 64.7009 98.5999C66.7904 96.1252 73.5 98.5999 73.5 98.5999" stroke="#005EEA" stroke-width="3"/>
<path d="M48.0189 21.25C48.0189 27.4632 57.9776 32.5 51.0477 32.5C44.1178 32.5 38.5 27.4632 38.5 21.25C38.5 15.0368 44.1178 9.99995 51.0477 9.99995C57.9776 9.99995 48.0189 15.0368 48.0189 21.25Z" fill="#9F00EA"/>
<path d="M194.098 94.3617C198.219 94.7765 202.225 88.507 201.762 93.1037C201.3 97.7004 197.584 101.091 193.462 100.676C189.341 100.261 186.375 96.1983 186.838 91.6016C187.3 87.0049 189.976 93.9469 194.098 94.3617Z" fill="#005EEA"/>
<path d="M156 105L158.806 113.637H167.888L160.541 118.975L163.347 127.613L156 122.275L148.653 127.613L151.459 118.975L144.112 113.637H153.194L156 105Z" fill="#05EA00"/>
<path d="M66 62.5L67.6839 67.6823H73.1329L68.7245 70.8852L70.4084 76.0676L66 72.8647L61.5916 76.0676L63.2755 70.8852L58.8671 67.6823H64.3161L66 62.5Z" fill="#EAD300"/>
<path d="M135.183 30.789L136.428 20.0508L145.107 25.553L146.096 16.5449L154.013 21.9984L156.479 12.2599" stroke="#005EEA" stroke-width="2.5"/>
</svg>
